<svg xmlns="http://www.w3.org/2000/svg" width="411" height="200" class="swt-logo" viewBox="0 0 411 200">
  <g fill-rule="nonzero" fill="none">
    <path d="M0 49.978h99.96C99.958 22.377 77.583.002 49.982 0 22.379 0 .002 22.375 0 49.978z" fill="#8967DB"/>
    <path fill="#B756EF" d="M.001 49.979h99.958v49.979H.001z"/>
    <path fill="#F761AF" d="M.001 99.958h99.958v49.979H.001z"/>
    <path d="M33.321 149.938v33.318a16.659 16.659 0 0 0 16.657 16.661 16.66 16.66 0 0 0 16.66-16.661v-33.318H33.321z" fill="#E8C377"/>
    <path fill="#C937A8" d="M33.32 99.958h33.319v49.979H33.32z"/>
    <path d="M66.639 99.957v-8.329a16.66 16.66 0 0 0-16.66-16.661 16.659 16.659 0 0 0-16.657 16.661v8.329h33.317z" fill="#805399"/>
    <g fill="#FFFFFF" class="swt-logo__text">
      <path d="M125.356 133.064a2.588 2.588 0 0 1-.46-3.453l5.3-9.329a2.714 2.714 0 0 1 3.915-.691c3.224 2.187 9.1 6.333 16.35 6.333 4.608 0 7.945-2.878 7.945-6.908 0-4.836-4.259-7.945-11.86-11.629-11.17-5.412-22.337-11.631-22.337-25.448 0-11.4 8.865-22.914 26.6-22.914 11.976 0 21.187 6.1 24.64 8.636 1.383.806 1.152 2.878.693 3.684l-5.873 8.867c-.806 1.268-2.763 2.19-5.065.806-2.649-1.841-9.442-6.218-15.546-6.218-4.836 0-7.024 2.993-7.024 6.333 0 3.8 4.49 6.793 12.551 10.708 10.127 4.957 23.256 10.595 23.256 26.257 0 11.86-10.248 23.836-27.176 23.836-14.97-.003-23.26-6.22-25.909-8.87z"/>
      <path d="M172.449 90.806a2.341 2.341 0 0 1 2.418-3.224h11.4a2.724 2.724 0 0 1 2.42 1.612l7.714 22.108h.113l13.013-23.836a2.252 2.252 0 0 1 2.072-1.037h1.268a2.172 2.172 0 0 1 2.072 1.037l13.126 23.836h.115l7.6-22.108c.462-1.268 1.268-1.612 2.649-1.612h11.17a2.409 2.409 0 0 1 2.418 3.224l-17.618 49.628a2.662 2.662 0 0 1-2.418 1.612h-.575a2.918 2.918 0 0 1-2.072-1.153l-17.159-28.67h-.116l-16.928 28.67a3.16 3.16 0 0 1-2.072 1.153h-.691a2.629 2.629 0 0 1-2.3-1.612l-17.619-49.628zM275.005 86.429c13.472 0 25.217 10.248 25.217 24.873 0 .806-.115 2.647-.231 3.453a2.591 2.591 0 0 1-2.534 2.3h-32.815c0 4.146 3.8 9.213 11.054 9.213a20.386 20.386 0 0 0 10.133-3.34c1.152-1.037 2.533-1.037 3.34 0l5.872 7.714a2.829 2.829 0 0 1-.116 3.8c-4.606 4.721-11.283 7.6-19.69 7.6-15.888 0-27.864-11.4-27.864-27.866a27.592 27.592 0 0 1 27.634-27.747zm7.255 20.5c-.231-3.569-3.224-6.562-7.717-6.562a7.888 7.888 0 0 0-7.943 6.562h15.66zM329.119 86.429c13.472 0 25.217 10.248 25.217 24.873 0 .806-.116 2.647-.231 3.453a2.589 2.589 0 0 1-2.532 2.3h-32.815c0 4.146 3.8 9.213 11.052 9.213a20.384 20.384 0 0 0 10.136-3.337c1.15-1.037 2.532-1.037 3.338 0l5.874 7.714a2.829 2.829 0 0 1-.116 3.8c-4.605 4.721-11.283 7.6-19.69 7.6-15.891 0-27.866-11.4-27.866-27.866a27.593 27.593 0 0 1 27.633-27.75zm7.255 20.5c-.231-3.569-3.224-6.562-7.714-6.562a7.889 7.889 0 0 0-7.945 6.562h15.659z"/>
      <path d="M359.103 103.357h-4.374a2.441 2.441 0 0 1-2.3-2.534V90.116a2.368 2.368 0 0 1 2.3-2.534h4.374v-14.74a2.555 2.555 0 0 1 2.534-2.532h12.666a2.44 2.44 0 0 1 2.3 2.532v14.74h10.708a2.482 2.482 0 0 1 2.534 2.534v10.707a2.556 2.556 0 0 1-2.534 2.534h-10.708v18.538c0 2.534 1.266 3.684 3.568 3.684a33.72 33.72 0 0 0 6.564-1.15 2.291 2.291 0 0 1 2.993 1.612l2.3 10.017c.344 1.612-.231 2.3-1.727 2.993a42.811 42.811 0 0 1-15.2 3c-10.133 0-16.006-6.449-16.006-18.54l.008-20.154z"/>
    </g>
    <g fill="#FFFFFF" class="swt-logo__text">
      <path d="M388.536 67.012a1.2 1.2 0 1 1 0-2.387h7.01a1.2 1.2 0 1 1 0 2.387h-2.107v7.777a1.407 1.407 0 1 1-2.794 0v-7.777h-2.109zM406.873 66.08c.638-1.472 1.373-1.618 1.9-1.618a1.642 1.642 0 0 1 1.659 1.879v8.5a1.365 1.365 0 1 1-2.711 0l.049-5.328h-.049l-2.436 5.555c-.49 1.144-1.046 1.292-1.552 1.292s-1.078-.164-1.551-1.292l-2.337-5.555h-.049l.036 5.376a1.316 1.316 0 1 1-2.614 0v-8.548a1.662 1.662 0 0 1 1.7-1.879c.522 0 1.274.146 1.912 1.618l2.99 6.977h.065l2.988-6.977z"/>
    </g>
  </g>
</svg>