<svg xmlns="http://www.w3.org/2000/svg" width="411" height="200" class="swt-logo" viewBox="0 0 411 200">
  <g fill-rule="nonzero" fill="none">
    <path d="M0 49.978h99.96C99.958 22.377 77.583.002 49.982 0 22.379 0 .002 22.375 0 49.978z" fill="#8967DB"/>
    <path fill="#B756EF" d="M.001 49.979h99.958v49.979H.001z"/>
    <path fill="#F761AF" d="M.001 99.958h99.958v49.979H.001z"/>
    <path d="M33.321 149.938v33.318a16.659 16.659 0 0 0 16.657 16.661 16.66 16.66 0 0 0 16.66-16.661v-33.318H33.321z" fill="#E8C377"/>
    <path fill="#C937A8" d="M33.32 99.958h33.319v49.979H33.32z"/>
    <path d="M66.639 99.957v-8.329a16.66 16.66 0 0 0-16.66-16.661 16.659 16.659 0 0 0-16.657 16.661v8.329h33.317z" fill="#805399"/>
  </g>
</svg>